<mxfile host="Electron" agent="Mozilla/5.0 (Windows NT 10.0; Win64; x64) AppleWebKit/537.36 (KHTML, like Gecko) draw.io/28.1.2 Chrome/138.0.7204.243 Electron/37.4.0 Safari/537.36" version="28.1.2">
  <diagram name="PÃ¡gina-1" id="q4Ux6oLb74FkQF-qro4p">
    <mxGraphModel dx="2334" dy="736" grid="1" gridSize="10" guides="1" tooltips="1" connect="1" arrows="1" fold="1" page="1" pageScale="1" pageWidth="827" pageHeight="1169" math="0" shadow="0">
      <root>
        <mxCell id="0" />
        <mxCell id="1" parent="0" />
        <mxCell id="w-L_4Kkfco-BZZlOeQeL-1" value="&lt;div&gt;&amp;lt;&amp;lt;interface&amp;gt;&amp;gt;&lt;/div&gt;FormaDePagoStrategy" style="swimlane;fontStyle=1;align=center;verticalAlign=top;childLayout=stackLayout;horizontal=1;startSize=50;horizontalStack=0;resizeParent=1;resizeParentMax=0;resizeLast=0;collapsible=1;marginBottom=0;whiteSpace=wrap;html=1;" vertex="1" parent="1">
          <mxGeometry x="540" y="240" width="230" height="110" as="geometry" />
        </mxCell>
        <mxCell id="w-L_4Kkfco-BZZlOeQeL-2" value="&amp;nbsp;" style="text;strokeColor=none;fillColor=none;align=left;verticalAlign=top;spacingLeft=4;spacingRight=4;overflow=hidden;rotatable=0;points=[[0,0.5],[1,0.5]];portConstraint=eastwest;whiteSpace=wrap;html=1;" vertex="1" parent="w-L_4Kkfco-BZZlOeQeL-1">
          <mxGeometry y="50" width="230" height="26" as="geometry" />
        </mxCell>
        <mxCell id="w-L_4Kkfco-BZZlOeQeL-3" value="" style="line;strokeWidth=1;fillColor=none;align=left;verticalAlign=middle;spacingTop=-1;spacingLeft=3;spacingRight=3;rotatable=0;labelPosition=right;points=[];portConstraint=eastwest;strokeColor=inherit;" vertex="1" parent="w-L_4Kkfco-BZZlOeQeL-1">
          <mxGeometry y="76" width="230" height="8" as="geometry" />
        </mxCell>
        <mxCell id="w-L_4Kkfco-BZZlOeQeL-4" value="+ pagar(importe : BigDecimal) : void" style="text;strokeColor=none;fillColor=none;align=left;verticalAlign=top;spacingLeft=4;spacingRight=4;overflow=hidden;rotatable=0;points=[[0,0.5],[1,0.5]];portConstraint=eastwest;whiteSpace=wrap;html=1;" vertex="1" parent="w-L_4Kkfco-BZZlOeQeL-1">
          <mxGeometry y="84" width="230" height="26" as="geometry" />
        </mxCell>
        <mxCell id="w-L_4Kkfco-BZZlOeQeL-5" value="Venta" style="swimlane;fontStyle=1;align=center;verticalAlign=top;childLayout=stackLayout;horizontal=1;startSize=26;horizontalStack=0;resizeParent=1;resizeParentMax=0;resizeLast=0;collapsible=1;marginBottom=0;whiteSpace=wrap;html=1;" vertex="1" parent="1">
          <mxGeometry x="-60" y="240" width="370" height="110" as="geometry" />
        </mxCell>
        <mxCell id="w-L_4Kkfco-BZZlOeQeL-6" value="&amp;nbsp;" style="text;strokeColor=none;fillColor=none;align=left;verticalAlign=top;spacingLeft=4;spacingRight=4;overflow=hidden;rotatable=0;points=[[0,0.5],[1,0.5]];portConstraint=eastwest;whiteSpace=wrap;html=1;" vertex="1" parent="w-L_4Kkfco-BZZlOeQeL-5">
          <mxGeometry y="26" width="370" height="26" as="geometry" />
        </mxCell>
        <mxCell id="w-L_4Kkfco-BZZlOeQeL-7" value="" style="line;strokeWidth=1;fillColor=none;align=left;verticalAlign=middle;spacingTop=-1;spacingLeft=3;spacingRight=3;rotatable=0;labelPosition=right;points=[];portConstraint=eastwest;strokeColor=inherit;" vertex="1" parent="w-L_4Kkfco-BZZlOeQeL-5">
          <mxGeometry y="52" width="370" height="8" as="geometry" />
        </mxCell>
        <mxCell id="w-L_4Kkfco-BZZlOeQeL-8" value="+&amp;nbsp;agregarProducto(producto: Producto, cantidad : Integer) : void&lt;div&gt;+&amp;nbsp;pagar() : void&lt;/div&gt;" style="text;strokeColor=none;fillColor=none;align=left;verticalAlign=top;spacingLeft=4;spacingRight=4;overflow=hidden;rotatable=0;points=[[0,0.5],[1,0.5]];portConstraint=eastwest;whiteSpace=wrap;html=1;" vertex="1" parent="w-L_4Kkfco-BZZlOeQeL-5">
          <mxGeometry y="60" width="370" height="50" as="geometry" />
        </mxCell>
        <mxCell id="w-L_4Kkfco-BZZlOeQeL-9" value="- formaDePago" style="endArrow=open;endSize=12;dashed=1;html=1;rounded=0;edgeStyle=orthogonalEdgeStyle;" edge="1" parent="1" source="w-L_4Kkfco-BZZlOeQeL-5" target="w-L_4Kkfco-BZZlOeQeL-1">
          <mxGeometry width="160" relative="1" as="geometry">
            <mxPoint x="330" y="330" as="sourcePoint" />
            <mxPoint x="490" y="330" as="targetPoint" />
          </mxGeometry>
        </mxCell>
        <mxCell id="w-L_4Kkfco-BZZlOeQeL-18" value="PagoTransferenciaBancaria" style="swimlane;fontStyle=1;align=center;verticalAlign=top;childLayout=stackLayout;horizontal=1;startSize=26;horizontalStack=0;resizeParent=1;resizeParentMax=0;resizeLast=0;collapsible=1;marginBottom=0;whiteSpace=wrap;html=1;" vertex="1" parent="1">
          <mxGeometry x="70" y="450" width="200" height="86" as="geometry" />
        </mxCell>
        <mxCell id="w-L_4Kkfco-BZZlOeQeL-19" value="- cbuOrigen : String" style="text;strokeColor=none;fillColor=none;align=left;verticalAlign=top;spacingLeft=4;spacingRight=4;overflow=hidden;rotatable=0;points=[[0,0.5],[1,0.5]];portConstraint=eastwest;whiteSpace=wrap;html=1;" vertex="1" parent="w-L_4Kkfco-BZZlOeQeL-18">
          <mxGeometry y="26" width="200" height="26" as="geometry" />
        </mxCell>
        <mxCell id="w-L_4Kkfco-BZZlOeQeL-20" value="" style="line;strokeWidth=1;fillColor=none;align=left;verticalAlign=middle;spacingTop=-1;spacingLeft=3;spacingRight=3;rotatable=0;labelPosition=right;points=[];portConstraint=eastwest;strokeColor=inherit;" vertex="1" parent="w-L_4Kkfco-BZZlOeQeL-18">
          <mxGeometry y="52" width="200" height="8" as="geometry" />
        </mxCell>
        <mxCell id="w-L_4Kkfco-BZZlOeQeL-21" value="+ pagar(importe: BigDecimal)&amp;nbsp;" style="text;strokeColor=none;fillColor=none;align=left;verticalAlign=top;spacingLeft=4;spacingRight=4;overflow=hidden;rotatable=0;points=[[0,0.5],[1,0.5]];portConstraint=eastwest;whiteSpace=wrap;html=1;" vertex="1" parent="w-L_4Kkfco-BZZlOeQeL-18">
          <mxGeometry y="60" width="200" height="26" as="geometry" />
        </mxCell>
        <mxCell id="w-L_4Kkfco-BZZlOeQeL-22" value="PagoTarjetaCredito" style="swimlane;fontStyle=1;align=center;verticalAlign=top;childLayout=stackLayout;horizontal=1;startSize=26;horizontalStack=0;resizeParent=1;resizeParentMax=0;resizeLast=0;collapsible=1;marginBottom=0;whiteSpace=wrap;html=1;" vertex="1" parent="1">
          <mxGeometry x="310" y="450" width="200" height="114" as="geometry" />
        </mxCell>
        <mxCell id="w-L_4Kkfco-BZZlOeQeL-23" value="-&amp;nbsp;nombreTarjeta : String&lt;div&gt;- numero :&amp;nbsp;String&lt;/div&gt;&lt;div&gt;- CVV: int&lt;/div&gt;" style="text;strokeColor=none;fillColor=none;align=left;verticalAlign=top;spacingLeft=4;spacingRight=4;overflow=hidden;rotatable=0;points=[[0,0.5],[1,0.5]];portConstraint=eastwest;whiteSpace=wrap;html=1;" vertex="1" parent="w-L_4Kkfco-BZZlOeQeL-22">
          <mxGeometry y="26" width="200" height="54" as="geometry" />
        </mxCell>
        <mxCell id="w-L_4Kkfco-BZZlOeQeL-24" value="" style="line;strokeWidth=1;fillColor=none;align=left;verticalAlign=middle;spacingTop=-1;spacingLeft=3;spacingRight=3;rotatable=0;labelPosition=right;points=[];portConstraint=eastwest;strokeColor=inherit;" vertex="1" parent="w-L_4Kkfco-BZZlOeQeL-22">
          <mxGeometry y="80" width="200" height="8" as="geometry" />
        </mxCell>
        <mxCell id="w-L_4Kkfco-BZZlOeQeL-25" value="+ pagar(importe: BigDecimal)&amp;nbsp;" style="text;strokeColor=none;fillColor=none;align=left;verticalAlign=top;spacingLeft=4;spacingRight=4;overflow=hidden;rotatable=0;points=[[0,0.5],[1,0.5]];portConstraint=eastwest;whiteSpace=wrap;html=1;" vertex="1" parent="w-L_4Kkfco-BZZlOeQeL-22">
          <mxGeometry y="88" width="200" height="26" as="geometry" />
        </mxCell>
        <mxCell id="w-L_4Kkfco-BZZlOeQeL-26" value="PagoPayPal" style="swimlane;fontStyle=1;align=center;verticalAlign=top;childLayout=stackLayout;horizontal=1;startSize=26;horizontalStack=0;resizeParent=1;resizeParentMax=0;resizeLast=0;collapsible=1;marginBottom=0;whiteSpace=wrap;html=1;" vertex="1" parent="1">
          <mxGeometry x="555" y="450" width="200" height="86" as="geometry" />
        </mxCell>
        <mxCell id="w-L_4Kkfco-BZZlOeQeL-27" value="- usuario : String" style="text;strokeColor=none;fillColor=none;align=left;verticalAlign=top;spacingLeft=4;spacingRight=4;overflow=hidden;rotatable=0;points=[[0,0.5],[1,0.5]];portConstraint=eastwest;whiteSpace=wrap;html=1;" vertex="1" parent="w-L_4Kkfco-BZZlOeQeL-26">
          <mxGeometry y="26" width="200" height="26" as="geometry" />
        </mxCell>
        <mxCell id="w-L_4Kkfco-BZZlOeQeL-28" value="" style="line;strokeWidth=1;fillColor=none;align=left;verticalAlign=middle;spacingTop=-1;spacingLeft=3;spacingRight=3;rotatable=0;labelPosition=right;points=[];portConstraint=eastwest;strokeColor=inherit;" vertex="1" parent="w-L_4Kkfco-BZZlOeQeL-26">
          <mxGeometry y="52" width="200" height="8" as="geometry" />
        </mxCell>
        <mxCell id="w-L_4Kkfco-BZZlOeQeL-29" value="+ pagar(importe: BigDecimal)&amp;nbsp;" style="text;strokeColor=none;fillColor=none;align=left;verticalAlign=top;spacingLeft=4;spacingRight=4;overflow=hidden;rotatable=0;points=[[0,0.5],[1,0.5]];portConstraint=eastwest;whiteSpace=wrap;html=1;" vertex="1" parent="w-L_4Kkfco-BZZlOeQeL-26">
          <mxGeometry y="60" width="200" height="26" as="geometry" />
        </mxCell>
        <mxCell id="w-L_4Kkfco-BZZlOeQeL-30" value="" style="endArrow=block;dashed=1;endFill=0;endSize=12;html=1;rounded=0;edgeStyle=orthogonalEdgeStyle;" edge="1" parent="1" source="w-L_4Kkfco-BZZlOeQeL-18" target="w-L_4Kkfco-BZZlOeQeL-1">
          <mxGeometry width="160" relative="1" as="geometry">
            <mxPoint x="330" y="330" as="sourcePoint" />
            <mxPoint x="490" y="330" as="targetPoint" />
            <Array as="points">
              <mxPoint x="170" y="400" />
              <mxPoint x="620" y="400" />
            </Array>
          </mxGeometry>
        </mxCell>
        <mxCell id="w-L_4Kkfco-BZZlOeQeL-31" value="" style="endArrow=block;dashed=1;endFill=0;endSize=12;html=1;rounded=0;edgeStyle=orthogonalEdgeStyle;" edge="1" parent="1" source="w-L_4Kkfco-BZZlOeQeL-22" target="w-L_4Kkfco-BZZlOeQeL-1">
          <mxGeometry width="160" relative="1" as="geometry">
            <mxPoint x="410" y="520" as="sourcePoint" />
            <mxPoint x="680" y="410" as="targetPoint" />
            <Array as="points">
              <mxPoint x="410" y="410" />
              <mxPoint x="660" y="410" />
            </Array>
          </mxGeometry>
        </mxCell>
        <mxCell id="w-L_4Kkfco-BZZlOeQeL-32" value="" style="endArrow=block;dashed=1;endFill=0;endSize=12;html=1;rounded=0;edgeStyle=orthogonalEdgeStyle;" edge="1" parent="1" source="w-L_4Kkfco-BZZlOeQeL-26" target="w-L_4Kkfco-BZZlOeQeL-1">
          <mxGeometry width="160" relative="1" as="geometry">
            <mxPoint x="580" y="530" as="sourcePoint" />
            <mxPoint x="704" y="430" as="targetPoint" />
            <Array as="points">
              <mxPoint x="700" y="400" />
              <mxPoint x="700" y="400" />
            </Array>
          </mxGeometry>
        </mxCell>
        <mxCell id="w-L_4Kkfco-BZZlOeQeL-33" value="Producto" style="swimlane;fontStyle=1;align=center;verticalAlign=top;childLayout=stackLayout;horizontal=1;startSize=26;horizontalStack=0;resizeParent=1;resizeParentMax=0;resizeLast=0;collapsible=1;marginBottom=0;whiteSpace=wrap;html=1;" vertex="1" parent="1">
          <mxGeometry x="450" y="40" width="160" height="114" as="geometry" />
        </mxCell>
        <mxCell id="w-L_4Kkfco-BZZlOeQeL-34" value="- nombre&lt;div&gt;- precioUnitario&lt;/div&gt;" style="text;strokeColor=none;fillColor=none;align=left;verticalAlign=top;spacingLeft=4;spacingRight=4;overflow=hidden;rotatable=0;points=[[0,0.5],[1,0.5]];portConstraint=eastwest;whiteSpace=wrap;html=1;" vertex="1" parent="w-L_4Kkfco-BZZlOeQeL-33">
          <mxGeometry y="26" width="160" height="54" as="geometry" />
        </mxCell>
        <mxCell id="w-L_4Kkfco-BZZlOeQeL-35" value="" style="line;strokeWidth=1;fillColor=none;align=left;verticalAlign=middle;spacingTop=-1;spacingLeft=3;spacingRight=3;rotatable=0;labelPosition=right;points=[];portConstraint=eastwest;strokeColor=inherit;" vertex="1" parent="w-L_4Kkfco-BZZlOeQeL-33">
          <mxGeometry y="80" width="160" height="8" as="geometry" />
        </mxCell>
        <mxCell id="w-L_4Kkfco-BZZlOeQeL-36" value="&amp;nbsp;" style="text;strokeColor=none;fillColor=none;align=left;verticalAlign=top;spacingLeft=4;spacingRight=4;overflow=hidden;rotatable=0;points=[[0,0.5],[1,0.5]];portConstraint=eastwest;whiteSpace=wrap;html=1;" vertex="1" parent="w-L_4Kkfco-BZZlOeQeL-33">
          <mxGeometry y="88" width="160" height="26" as="geometry" />
        </mxCell>
        <mxCell id="w-L_4Kkfco-BZZlOeQeL-37" value="- productos" style="endArrow=open;endSize=12;dashed=1;html=1;rounded=0;edgeStyle=orthogonalEdgeStyle;" edge="1" parent="1" source="w-L_4Kkfco-BZZlOeQeL-5" target="w-L_4Kkfco-BZZlOeQeL-33">
          <mxGeometry x="0.2571" width="160" relative="1" as="geometry">
            <mxPoint x="570" y="330" as="sourcePoint" />
            <mxPoint x="790" y="392" as="targetPoint" />
            <Array as="points">
              <mxPoint x="240" y="100" />
            </Array>
            <mxPoint as="offset" />
          </mxGeometry>
        </mxCell>
        <mxCell id="w-L_4Kkfco-BZZlOeQeL-38" value="productos es un Map&amp;lt;Producto, Integer&amp;gt;.&lt;br&gt;producto, cantidad." style="text;html=1;align=center;verticalAlign=middle;resizable=0;points=[];autosize=1;strokeColor=none;fillColor=none;" vertex="1" parent="1">
          <mxGeometry x="25" y="20" width="240" height="40" as="geometry" />
        </mxCell>
      </root>
    </mxGraphModel>
  </diagram>
</mxfile>
